{"title":"The Amazing SpiderMan 2 2014 V2 HDCAM x264 AC3-MiLLENiUM","uid":10179065,"size":1519402429,"categoryP":"video","categoryS":"movies","magnet":"?xt=urn:btih:3bde410bcd86c590b7ea80cbd015f14dfc6b1b7c&amp;dn=The+Amazing+SpiderMan+2+2014+V2+HDCAM+x264+AC3-MiLLENiUM&amp;tr=udp%3A%2F%2Ftracker.openbittorrent.com%3A80&amp;tr=udp%3A%2F%2Fopen.demonii.com%3A1337&amp;tr=udp%3A%2F%2Ftracker.coppersurfer.tk%3A6969&amp;tr=udp%3A%2F%2Fexodus.desync.com%3A6969","seeders":2,"leechers":0,"uploader":"Xetron","files":4,"time":1400504997,"description":"www.GloTorrents.com\n\n\n[img]http://s8.postimg.org/pwhp7qlph/the_amazing_spider_man_2_movie_poster_rwmv2pop.png[/img]\n\nThe Amazing SpiderMan 2 2014 V2 HDCAM x264 AC3-MiLLENiUM General\nSource: 720p-EVE [THANKS]\nIMDb Information: http://www.imdb.com/title/tt1872181/\nSample Included: yes\n\nGeneral\nComplete name: The Amazing SpiderMan 2 2014 V2 HDCAM x264 AC3-MiLLENiUM.mkv\nFormat: Matroska\nFormat version: Version 2\nFile size: 1.39 GiB\nDuration: 2h 16mn\nOverall bit rate mode: Variable\nOverall bit rate: 1 450 Kbps\nEncoded date: UTC 2014-05-19 09:11:23\nWriting application: mkvmerge v6.9.1 ('Blue Panther') 32bit built on Apr 18 2014 18:15:44\nWriting library: libebml v1.3.0 + libmatroska v1.4.1\n\nVideo\nID: 1\nFormat: AVC\nFormat/Info: Advanced Video Codec\nFormat profile: &lt;a class=&quot;__cf_email__&quot; href=&quot;/cdn-cgi/l/email-protection&quot; data-cfemail=&quot;aae2c3cdc2eae69e849b&quot;&gt;[email&amp;#160;protected]&lt;/a&gt;&lt;script data-cfhash='f9e31' type=&quot;text/javascript&quot;&gt;\n/* &lt;![CDATA[ */!function(){try{var t=&quot;currentScript&quot;in document?document.currentScript:function(){for(var t=document.getElementsByTagName(&quot;script&quot;),e=t.length;e--;)if(t[e].getAttribute(&quot;data-cfhash&quot;))return t[e]}();if(t&amp;&amp;t.previousSibling){var e,r,n,i,c=t.previousSibling,a=c.getAttribute(&quot;data-cfemail&quot;);if(a){for(e=&quot;&quot;,r=parseInt(a.substr(0,2),16),n=2;a.length-n;n+=2)i=parseInt(a.substr(n,2),16)^r,e+=String.fromCharCode(i);e=document.createTextNode(e),c.parentNode.replaceChild(e,c)}t.parentNode.removeChild(t);}}catch(u){}}()/* ]]&gt; */&lt;/script&gt;\nFormat settings, CABAC: Yes\nFormat settings, ReFrames: 3 frames\nCodec ID: V_MPEG4/ISO/AVC\nDuration: 2h 16mn\nBit rate mode: Variable\nBit rate: 1 229 Kbps\nMaximum bit rate: 40.0 Mbps\nWidth: 720 pixels\nHeight: 304 pixels\nDisplay aspect ratio: 2.35:1\nFrame rate mode: Constant\nFrame rate: 23.976 fps\nColor space: YUV\nChroma subsampling: 4:2:0\nBit depth: 8 bits\nScan type: Progressive\nBits/(Pixel*Frame): 0.234\nStream size: 1.17 GiB (85%)\nWriting library: x264 core 142 r2409 d6b4e63\n\nAudio\nID: 2\nFormat: AC-3\nFormat/Info: Audio Coding 3\nMode extension: CM (complete main)\nFormat settings, Endianness: Big\nCodec ID: A_AC3\nDuration: 2h 16mn\nBit rate mode: Constant\nBit rate: 192 Kbps\nChannel(s): 2 channels\nChannel positions: Front: L R\nSampling rate: 48.0 KHz\nBit depth: 16 bits\nCompression mode: Lossy\nStream size: 188 MiB (13%)\nLanguage: English\nDefault: Yes\nForced: N Plot\n\nPeter Parker runs the gauntlet as the mysterious company Oscorp sends up a slew of supervillains against him, impacting on his life Notes\n\nTweaked coef_sat, contrast, hue, whitebalance, levels and slight sharpen, then resized and run it through a custom profile\nThe audio is clean and no missing bits, and it looks awesome. (o_0) \n\nScreenshots \n\n[img]http://s4.postimg.org/3xqyvdd8t/vlcsnap_2014_05_19_10h16m14s95.png[/img]\n[img]http://s4.postimg.org/z5zjsp2z1/vlcsnap_2014_05_19_10h17m09s145.png[/img]\n[img]http://s4.postimg.org/hoqe0gvv1/vlcsnap_2014_05_19_10h18m12s10.png[/img]\n[img]http://s4.postimg.org/8i83d6qml/vlcsnap_2014_05_19_10h20m01s88.png[/img]\n[img]http://s4.postimg.org/xoe3h4y8d/vlcsnap_2014_05_19_10h21m01s175.png[/img]\n[img]http://s4.postimg.org/ff7bmtt8t/vlcsnap_2014_05_19_10h21m50s157.png[/img]\n[img]http://s4.postimg.org/hl1mhbwp9/vlcsnap_2014_05_19_10h22m05s50.png[/img]\n[img]http://s4.postimg.org/qq9zb703x/vlcsnap_2014_05_19_10h22m55s25.png[/img]\n","torrent":{"xt":"urn:btih:3bde410bcd86c590b7ea80cbd015f14dfc6b1b7c","amp;dn":"The+Amazing+SpiderMan+2+2014+V2+HDCAM+x264+AC3-MiLLENiUM","amp;tr":["udp%3A%2F%2Ftracker.openbittorrent.com%3A80","udp%3A%2F%2Fopen.demonii.com%3A1337","udp%3A%2F%2Ftracker.coppersurfer.tk%3A6969","udp%3A%2F%2Fexodus.desync.com%3A6969"],"infoHash":"3bde410bcd86c590b7ea80cbd015f14dfc6b1b7c","infoHashBuffer":{"type":"Buffer","data":[59,222,65,11,205,134,197,144,183,234,128,203,208,21,241,77,252,107,27,124]},"announce":[],"urlList":[]}}